<svg xmlns="http://www.w3.org/2000/svg" viewBox="0 0 31 31"><defs><style>.cls-1,.cls-3{fill:#00b7f1;}.cls-1{opacity:0.3;}.cls-2{fill:none;stroke:#00b7f1;stroke-miterlimit:10;}</style></defs><title>camera_legend</title><g id="图层_2" data-name="图层 2"><g id="实时监控_配色02"><rect class="cls-1" x="2.46" y="2.46" width="26.09" height="26.09"/><rect class="cls-2" x="0.5" y="0.5" width="30" height="30"/><path class="cls-3" d="M10.49,18.5H8.62V16.13L6.8,15.8v7.6l1.82-.6V20.15h2.92L13.13,18,11,16.9ZM20,19l4.24-2.7L11,7.6H9.44L7.35,10.9V12L19,19.05h1Zm-1.6.55-10-6.5-1,1.1,11.61,7H20l.55-.55.55-1.6s-1.54,1.1-1.6,1.1a9.28,9.28,0,0,0-1.1-.6Z"/></g></g></svg>