<svg xmlns="http://www.w3.org/2000/svg" viewBox="0 0 10 14"><defs><style>.cls-1{fill:#e5e5e5;}</style></defs><title>clock</title><g id="图层_2" data-name="图层 2"><g id="实时监控_配色02"><path class="cls-1" d="M9.32,5.9H2.69V3.67a2.31,2.31,0,0,1,4.62,0,.68.68,0,0,0,1.36,0,3.67,3.67,0,0,0-7.34,0V5.9H.68A.68.68,0,0,0,0,6.58v6.74A.68.68,0,0,0,.68,14H9.32a.69.69,0,0,0,.68-.68V6.58A.68.68,0,0,0,9.32,5.9ZM5.41,10.25v1.87H4.6V10.25a1.45,1.45,0,0,1-1.07-1.4,1.47,1.47,0,0,1,2.94,0A1.45,1.45,0,0,1,5.41,10.25Z"/></g></g></svg>