<svg xmlns="http://www.w3.org/2000/svg" xmlns:xlink="http://www.w3.org/1999/xlink" viewBox="0 0 22 22"><defs><style>.cls-1{fill:none;}.cls-2{clip-path:url(#clip-path);}.cls-3{fill:#5ec474;}</style><clipPath id="clip-path" transform="translate(0)"><rect class="cls-1" width="22" height="22"/></clipPath></defs><title>event_map</title><g id="图层_2" data-name="图层 2"><g id="实时监控_配色02"><g class="cls-2"><path class="cls-3" d="M15.54,9.09a6.45,6.45,0,0,0-5,10.48l.2.24A6.45,6.45,0,1,0,15.54,9.09Zm4.05,10.17-.67-.68a5.33,5.33,0,0,1-.71.64l.68.68A5.45,5.45,0,0,1,15.78,21v-1l-.24,0a4.17,4.17,0,0,1-.71-.07v1a5.44,5.44,0,0,1-3-1.4l.68-.67a5.33,5.33,0,0,1-.64-.71l-.69.68a5.44,5.44,0,0,1-1.08-2.63h1a4.2,4.2,0,0,1-.06-.72c0-.08,0-.16,0-.24h-.95a5.51,5.51,0,0,1,1.12-3.1l.69.68a4.33,4.33,0,0,1,.64-.71l-.68-.68a5.5,5.5,0,0,1,7.76,7.77Z" transform="translate(0)"/><path class="cls-3" d="M15.49,11h-.66v0a4.87,4.87,0,0,0-1.44.4l2.24,4.26,3.81,2a4.19,4.19,0,0,0,.65-2.24A4.58,4.58,0,0,0,15.49,11Z" transform="translate(0)"/><path class="cls-3" d="M15.78,11h0Z" transform="translate(0)"/><path class="cls-3" d="M1.43,21A.47.47,0,0,1,1,20.57V2.39a.48.48,0,0,1,.47-.48h2.4v1H5.26v-1h7.17v1h1.44v-1h2.39a.49.49,0,0,1,.48.48V8.24a7.82,7.82,0,0,1,1,.21V1.91a1,1,0,0,0-1-.95H13.87V.48a.78.78,0,0,0-1.44,0V1H5.26V.48A.78.78,0,0,0,4.54,0a.77.77,0,0,0-.71.48V1H1a1,1,0,0,0-1,1V21a1,1,0,0,0,1,1h11a7,7,0,0,1-1.32-1Z" transform="translate(0)"/><path class="cls-3" d="M2.87,16.74H8.24a6,6,0,0,1-.1-1H2.87Z" transform="translate(0)"/><rect class="cls-3" x="2.87" y="6.22" width="11.96" height="0.96"/><path class="cls-3" d="M10.59,10H2.87v1H9.69a7.42,7.42,0,0,1,.9-1Z" transform="translate(0)"/><path class="cls-3" d="M14.83,8.17v0h-12v1h9a7.25,7.25,0,0,1,2.92-.92Z" transform="translate(0)"/><rect class="cls-3" x="2.87" y="4.3" width="11.96" height="0.96"/><path class="cls-3" d="M2.87,18.65h6a7.79,7.79,0,0,1-.37-.95H2.87Z" transform="translate(0)"/><path class="cls-3" d="M8.33,13.87H2.87v1h5.3a7.39,7.39,0,0,1,.16-1Z" transform="translate(0)"/><path class="cls-3" d="M2.87,12v.95H8.62A7.48,7.48,0,0,1,9.06,12Z" transform="translate(0)"/></g></g></g></svg>