<svg xmlns="http://www.w3.org/2000/svg" viewBox="0 0 31 31"><defs><style>.cls-1,.cls-3{fill:#5ec474;}.cls-1{opacity:0.3;}.cls-2{fill:none;stroke:#5ec474;stroke-miterlimit:10;}</style></defs><title>event_legend</title><g id="图层_2" data-name="图层 2"><g id="实时监控_配色02"><rect class="cls-1" x="2.46" y="2.46" width="26.09" height="26.09"/><rect class="cls-2" x="0.5" y="0.5" width="30" height="30"/><path class="cls-3" d="M19,14a5,5,0,0,0-3.9,8.1l.16.18A5,5,0,1,0,19,14Zm3.13,7.86-.52-.52a3.64,3.64,0,0,1-.55.49l.53.53a4.3,4.3,0,0,1-2.4.87v-.74H19a3.31,3.31,0,0,1-.55-.05v.75a4.24,4.24,0,0,1-2.32-1.08l.53-.52a3.71,3.71,0,0,1-.5-.55l-.53.53a4.31,4.31,0,0,1-.84-2h.75A3.53,3.53,0,0,1,15.5,19c0-.06,0-.12,0-.18h-.74a4.25,4.25,0,0,1,.87-2.4l.53.52a3.71,3.71,0,0,1,.5-.55l-.53-.52a4.25,4.25,0,0,1,6,6Z"/><path class="cls-3" d="M19,15.5h-.51v0a3.78,3.78,0,0,0-1.12.3l1.74,3.29,3,1.55a3.32,3.32,0,0,0,.49-1.73A3.54,3.54,0,0,0,19,15.5Z"/><path class="cls-3" d="M19.2,15.5h0Z"/><path class="cls-3" d="M8.11,23.26a.36.36,0,0,1-.37-.37v-14a.36.36,0,0,1,.37-.37H10v.74h1.11V8.48h5.54v.74h1.11V8.48h1.85a.36.36,0,0,1,.36.37v4.51a5.7,5.7,0,0,1,.74.17v-5a.74.74,0,0,0-.74-.74H17.72V7.37A.62.62,0,0,0,17.16,7a.61.61,0,0,0-.55.37v.37H11.07V7.37A.62.62,0,0,0,10.51,7a.59.59,0,0,0-.55.37v.37H7.74A.74.74,0,0,0,7,8.48V23.26a.74.74,0,0,0,.74.74H16.2a5.78,5.78,0,0,1-1-.74Z"/><path class="cls-3" d="M9.22,19.93h4.14a5.82,5.82,0,0,1-.07-.73H9.22Z"/><rect class="cls-3" x="9.22" y="11.8" width="9.24" height="0.74"/><path class="cls-3" d="M15.18,14.76h-6v.74h5.27a6,6,0,0,1,.69-.74Z"/><path class="cls-3" d="M18.46,13.31v0H9.22V14h7a5.76,5.76,0,0,1,2.26-.71Z"/><rect class="cls-3" x="9.22" y="10.33" width="9.24" height="0.74"/><path class="cls-3" d="M9.22,21.41h4.6a6,6,0,0,1-.29-.74H9.22Z"/><path class="cls-3" d="M13.43,17.72H9.22v.74h4.09a5.71,5.71,0,0,1,.12-.74Z"/><path class="cls-3" d="M9.22,16.24V17h4.44a6.21,6.21,0,0,1,.34-.74Z"/></g></g></svg>