<svg xmlns="http://www.w3.org/2000/svg" viewBox="0 0 31 31"><defs><style>.cls-1,.cls-3{fill:#f5b04a;}.cls-1{opacity:0.3;}.cls-2{fill:none;stroke:#f5b04a;stroke-miterlimit:10;}</style></defs><title>person_legend</title><g id="图层_2" data-name="图层 2"><g id="实时监控_配色02"><rect class="cls-1" x="2.46" y="2.46" width="26.09" height="26.09"/><rect class="cls-2" x="0.5" y="0.5" width="30" height="30"/><path class="cls-3" d="M10.83,19.43c-1.68.86-3.12,2-3.12,3.08v.57c0,1.19,3.12,2.21,3.12,2.21L12,25.14h-.11s-1-5.75-1.1-5.71Z"/><path class="cls-3" d="M20,9.92c0-2.7-3.69-4.06-3.69-4.06a2.08,2.08,0,0,0-1.57,0S11,7.05,11,9.92c0,.43-.78.34-1,1.69H21c-.46-1.36-1-1.26-1-1.69Z"/><path class="cls-3" d="M18.62,25.13h.21l-.21,0v0Z"/><path class="cls-3" d="M20.16,19.43c-.1,0-1.07,5.69-1.07,5.69h-.21l1.29.16s3.12-1,3.12-2.21v-.57c0-1.13-1.42-2.24-3.13-3.08Z"/><path class="cls-3" d="M19.39,19.15c-.45-.19-.91-.43-1.36-.58-.11,0-.83-.36-.38-1.71h0a5.55,5.55,0,0,0,1.79-4.46H11.59a5.49,5.49,0,0,0,1.78,4.47c.45,1.2-.36,1.64-.53,1.7-.46.17-.77.37-1.24.58-.08,0,.73,5.63.78,6,.29,0,.81-.1,1.39-.14l1.71.33L17.24,25c.57.05,1.09.1,1.38.14.05-.32.89-5.9.77-6Z"/><path class="cls-3" d="M12,25.14h.34v0l-.26,0Z"/></g></g></svg>