<svg xmlns="http://www.w3.org/2000/svg" xmlns:xlink="http://www.w3.org/1999/xlink" viewBox="0 0 17.51 22"><defs><style>.cls-1{fill:none;}.cls-2{clip-path:url(#clip-path);}.cls-3{fill:#f5b04a;}</style><clipPath id="clip-path" transform="translate(-2.25)"><rect class="cls-1" width="22" height="22"/></clipPath></defs><title>person_map</title><g id="图层_2" data-name="图层 2"><g id="实时监控_配色02"><g class="cls-2"><path class="cls-3" d="M5.76,15.42c-1.89,1-3.51,2.21-3.51,3.45v.65C2.25,20.85,5.76,22,5.76,22l1.35-.18H7s-1.14-6.46-1.23-6.41Z" transform="translate(-2.25)"/><path class="cls-3" d="M16,4.73c0-3-4.14-4.55-4.14-4.55a2.27,2.27,0,0,0-1.77,0S6,1.51,6,4.73c0,.48-.88.38-1.17,1.91H17.18C16.66,5.1,16,5.21,16,4.73Z" transform="translate(-2.25)"/><path class="cls-3" d="M14.5,21.81h.24l-.23,0a0,0,0,0,0,0,0Z" transform="translate(-2.25)"/><path class="cls-3" d="M16.23,15.42c-.11-.06-1.2,6.38-1.2,6.38h-.24l1.46.19s3.5-1.15,3.5-2.48v-.65c0-1.26-1.59-2.51-3.52-3.45Z" transform="translate(-2.25)"/><path class="cls-3" d="M15.37,15.1c-.51-.22-1-.48-1.53-.65-.12,0-.93-.4-.43-1.92h0a6.23,6.23,0,0,0,2-5H6.61a6.21,6.21,0,0,0,2,5c.52,1.34-.4,1.84-.59,1.91-.52.19-.86.41-1.39.65-.09.05.82,6.32.87,6.68l1.57-.16L11,22l2-.38,1.56.16c.05-.35,1-6.63.86-6.68Z" transform="translate(-2.25)"/><path class="cls-3" d="M7.11,21.82H7.5v0l-.29,0Z" transform="translate(-2.25)"/></g></g></g></svg>