<svg xmlns="http://www.w3.org/2000/svg" xmlns:xlink="http://www.w3.org/1999/xlink" viewBox="0 0 12.88 12"><defs><style>.cls-1{fill:none;}.cls-2{clip-path:url(#clip-path);}.cls-3{fill:#e6e6e6;}</style><clipPath id="clip-path" transform="translate(-0.56 -1)"><rect class="cls-1" width="14" height="14"/></clipPath></defs><title>play</title><g id="图层_2" data-name="图层 2"><g id="实时监控_配色02"><g class="cls-2"><path class="cls-3" d="M12.23,3.4A6.12,6.12,0,0,0,3.74,2.19a6,6,0,0,0-2,2.49L1.47,3.61A.47.47,0,0,0,.89,3.3a.46.46,0,0,0-.31.57l.68,2.34a.47.47,0,0,0,.45.33,2.54,2.54,0,0,0,.37-.1l2.33-.86a.46.46,0,0,0-.32-.86l-1.56.57A5.11,5.11,0,0,1,4.28,2.94a5.18,5.18,0,0,1,7.21,1,5,5,0,0,1-1,7.1,5.18,5.18,0,0,1-7.21-1,.46.46,0,1,0-.74.56A6.14,6.14,0,0,0,11,11.81a6,6,0,0,0,2.37-4A5.9,5.9,0,0,0,12.23,3.4Z" transform="translate(-0.56 -1)"/><polygon class="cls-3" points="5.94 4 8.94 6 5.94 8 5.94 4"/></g></g></g></svg>