<svg xmlns="http://www.w3.org/2000/svg" viewBox="0 0 31 31"><defs><style>.cls-1,.cls-3{fill:#e76b62;}.cls-1{opacity:0.3;}.cls-2{fill:none;stroke:#e76b62;stroke-miterlimit:10;}</style></defs><title>thermodynamic_legend</title><g id="图层_2" data-name="图层 2"><g id="实时监控_配色02"><rect class="cls-1" x="2.46" y="2.46" width="26.09" height="26.09"/><rect class="cls-2" x="0.5" y="0.5" width="30" height="30"/><path class="cls-3" d="M20,23.84c-2.2-1.14-5.82-.39-8-.69s-3.63-2.32-4.38-4.42C5.67,13.36,8.88,11.9,11.49,12S13,9.46,16.67,7.46s4.66,3.14,4.25,4.31S20.23,14.06,23,17s-.8,8-3,6.85Zm1.82-6.77c-2.42-2.45-2.46-3.49-2-4.6.35-1,.15-5.25-3-3.59s-2.19,4.34-4.41,4.27S7.13,14.31,8.7,18.64a4.81,4.81,0,0,0,3.92,3.26c1.87.22,4.91-.31,6.77.59s4.73-3.07,2.41-5.42Zm-4,3.09c-1.14-.43-1.4-1.88-1.06-3.08s-.7-2.85-1.18-3.77.64-3,1.84-3.35c1.95-.52,1,2.55,1.05,4.6s3,3.38,3,4.63-2.48,1.4-3.63,1Zm-2.95-1.65a3.59,3.59,0,0,1-3.59.95C10,19,9.09,16.9,10.1,16c2.05-1.84,2.26.08,3.94-.73s1.8,2.32.8,3.24Z"/></g></g></svg>