<svg xmlns="http://www.w3.org/2000/svg" viewBox="0 0 36.26 36"><defs><style>.cls-1{fill:#1567f9;}.cls-2{fill:#01b8fd;}</style></defs><title>total</title><g id="图层_2" data-name="图层 2"><g id="实时监控_配色02"><path class="cls-1" d="M21.44,33.2v2.67A19,19,0,0,0,36.26,20.42H33.62A17,17,0,0,1,21.44,33.2Z"/><path class="cls-1" d="M30.38,18.1A12.22,12.22,0,1,1,18.16,5.88,12.23,12.23,0,0,1,30.38,18.1ZM18.19,7.88A10.25,10.25,0,1,0,28.44,18.13,10.25,10.25,0,0,0,18.19,7.88Z"/><path class="cls-1" d="M33.62,15.45h2.64A19,19,0,0,0,21.44,0V2.67A17,17,0,0,1,33.62,15.45Z"/><path class="cls-1" d="M2.64,20.55H0A19,19,0,0,0,14.82,36V33.33A17,17,0,0,1,2.64,20.55Z"/><path class="cls-1" d="M14.82,2.79V.12A19,19,0,0,0,0,15.57H2.64A17,17,0,0,1,14.82,2.79Z"/><rect class="cls-2" x="13.92" y="13.86" width="8.47" height="8.47"/></g></g></svg>