<svg xmlns="http://www.w3.org/2000/svg" xmlns:xlink="http://www.w3.org/1999/xlink" viewBox="0 0 38 37.68"><defs><style>.cls-1{fill:none;}.cls-2{clip-path:url(#clip-path);}.cls-3{fill:#f5b04a;}</style><clipPath id="clip-path" transform="translate(0 -0.16)"><rect class="cls-1" width="38" height="38"/></clipPath></defs><title>weather</title><g id="图层_2" data-name="图层 2"><g id="实时监控_配色02"><g class="cls-2"><path class="cls-3" d="M9.2,4.1a.85.85,0,0,0,.79.53.77.77,0,0,0,.32-.07.84.84,0,0,0,.46-1.1L9.65.69a.85.85,0,1,0-1.57.64ZM.59,9.57l2.76,1.16a.72.72,0,0,0,.33.07A.85.85,0,0,0,4,9.17L1.25,8A.85.85,0,0,0,.59,9.57Zm3.35,9.92a.85.85,0,0,0-.64-1.58L.53,19a.85.85,0,0,0,.32,1.63.87.87,0,0,0,.32-.06Zm20.94-8.58a1,1,0,0,0,.32-.06l2.68-1.09a.85.85,0,1,0-.63-1.57L24.56,9.28a.85.85,0,0,0,.32,1.63ZM18.32,4.65a.78.78,0,0,0,.33.07.85.85,0,0,0,.78-.52L20.6,1.45A.85.85,0,0,0,19,.79L17.87,3.54a.85.85,0,0,0,.45,1.11Zm17.8,22a6.5,6.5,0,0,0-3.73-1.91,10.16,10.16,0,0,0-9.74-9.56c0-.24,0-.49,0-.73a8.47,8.47,0,0,0-16.94,0,8.37,8.37,0,0,0,2.67,6.17,4.59,4.59,0,0,0-2.43,4c0,.07,0,.14,0,.21A6.59,6.59,0,0,0,7.73,37.84H31.44a6.56,6.56,0,0,0,4.68-11.16ZM7.44,14.48a6.78,6.78,0,1,1,13.55,0,7.34,7.34,0,0,1,0,.81,10.15,10.15,0,0,0-7.81,5.61,4.56,4.56,0,0,0-2.57-.79h-.11a6.75,6.75,0,0,1-3-5.64ZM34.86,34.72a4.83,4.83,0,0,1-3.42,1.42H7.73a4.89,4.89,0,0,1-.68-9.73.84.84,0,0,0,.59-.36.86.86,0,0,0,.12-.68,3.08,3.08,0,0,1-.08-.68,2.89,2.89,0,0,1,2.46-2.85h.13a.78.78,0,0,0,.26,0h0a2.9,2.9,0,0,1,2.24,1.06.84.84,0,0,0,.38,1,.85.85,0,0,0,1.07-1.28,8.46,8.46,0,0,1,16.46,2.75v.1a.17.17,0,0,1,0,.07.85.85,0,0,0,.82.87,4.87,4.87,0,0,1,3.32,8.32Z" transform="translate(0 -0.16)"/></g></g></g></svg>